<?xml version="1.0" standalone="no"?>
<!DOCTYPE svg PUBLIC "-//W3C//DTD SVG 20010904//EN"
 "http://www.w3.org/TR/2001/REC-SVG-20010904/DTD/svg10.dtd">
<svg version="1.0" xmlns="http://www.w3.org/2000/svg"
 width="700.000000pt" height="700.000000pt" viewBox="0 0 700.000000 700.000000"
 preserveAspectRatio="xMidYMid meet">
<metadata>
Created by potrace 1.14, written by Peter Selinger 2001-2017
</metadata>
<g transform="translate(0.000000,700.000000) scale(0.100000,-0.100000)"
fill="#000000" stroke="none">
<path d="M697 5605 l-697 -1395 0 -2105 0 -2105 235 0 235 0 2 921 3 921 460
-921 460 -921 462 0 c255 0 463 3 463 6 0 6 127 505 321 1264 28 107 84 328
125 490 41 162 97 381 124 485 133 517 190 742 193 760 2 11 7 27 10 35 5 13
84 321 140 548 11 45 23 82 26 82 3 0 5 -64 4 -142 0 -79 -4 -719 -8 -1423 -4
-704 -8 -1466 -10 -1692 l-3 -413 248 0 248 0 -2 2070 c0 1138 2 2066 6 2062
3 -4 40 -162 83 -352 42 -190 82 -372 90 -405 8 -33 127 -569 265 -1192 l251
-1132 -36 -163 c-20 -90 -38 -172 -40 -183 -1 -11 -5 -27 -8 -35 -6 -16 -36
-150 -42 -190 -3 -14 -25 -115 -50 -225 -26 -110 -48 -212 -50 -228 l-4 -27
236 2 236 3 63 285 c35 157 75 335 88 395 71 307 548 2463 551 2485 1 14 5 32
8 40 3 8 17 69 32 135 14 66 32 147 40 180 8 33 42 184 75 335 33 150 62 275
64 277 1 2 3 -927 2 -2064 l0 -2068 356 -3 357 -2 30 97 c50 164 85 282 201
673 61 206 124 418 140 470 16 52 45 149 64 215 19 66 43 149 54 185 11 36 61
203 111 371 l91 306 0 246 0 247 -465 -3 -465 -3 0 463 0 463 465 0 465 0 -2
238 -3 237 -452 0 c-249 0 -453 2 -453 6 0 3 205 211 455 461 l455 455 -2 239
-3 238 -95 12 c-174 22 -205 26 -240 30 -19 2 -51 6 -70 9 -19 2 -54 7 -77 10
-97 12 -258 32 -323 40 -19 3 -109 14 -200 25 -91 11 -178 22 -195 25 -16 2
-57 7 -90 10 -84 9 -94 13 -64 29 51 26 210 112 374 201 94 51 197 107 230
125 33 18 87 47 120 65 66 36 381 207 485 263 36 19 84 46 108 59 l42 25 0
234 0 234 -1168 0 -1168 0 -33 -102 c-17 -57 -50 -159 -73 -228 -22 -69 -41
-129 -42 -135 -2 -5 -29 -91 -60 -190 -32 -99 -98 -303 -146 -454 -48 -150
-90 -269 -93 -264 -3 4 -49 134 -102 288 -53 154 -112 323 -130 375 -18 52
-54 156 -80 230 -26 74 -62 180 -81 235 -20 55 -39 111 -44 125 -5 14 -16 46
-26 73 l-17 47 -465 -2 -466 -3 -87 -215 c-47 -118 -155 -384 -238 -590 -84
-206 -209 -514 -277 -685 -69 -170 -129 -319 -134 -330 -5 -11 -50 -119 -98
-240 -49 -121 -92 -227 -95 -235 -3 -8 -5 505 -4 1140 l2 1155 -240 3 -240 2
-698 -1395z m3042 -30 c5 -11 57 -168 117 -348 l107 -328 -106 -319 c-59 -176
-107 -327 -108 -337 -2 -44 -21 49 -64 307 -52 311 -49 294 -64 375 -6 33 -13
74 -16 91 -7 46 -53 314 -59 349 -3 17 -10 59 -16 95 -5 36 -12 76 -15 90 -4
22 -48 288 -61 365 -3 17 -11 66 -19 110 -8 44 -17 98 -20 120 -3 22 -10 63
-15 90 -5 28 -12 64 -14 80 -7 40 -95 561 -102 600 -3 17 96 -274 221 -645
124 -371 229 -684 234 -695z m2293 953 c10 -2 -43 -40 -122 -88 -77 -47 -148
-91 -157 -98 -21 -14 -294 -185 -490 -306 l-132 -81 -1 -237 0 -237 33 -6 c17
-3 318 -53 667 -111 349 -57 648 -108 663 -112 26 -7 -24 -46 -666 -527 -694
-520 -694 -520 -705 -565 -16 -61 -312 -1398 -317 -1430 -2 -14 -30 -135 -60
-270 -31 -135 -58 -256 -60 -270 -2 -14 -7 -34 -11 -45 -7 -17 -9 -15 -16 15
-5 19 -10 47 -13 63 -2 15 -6 31 -9 35 -2 4 -7 27 -11 52 -4 25 -9 48 -12 53
-2 4 -6 20 -8 35 -2 15 -11 56 -20 92 -9 36 -17 74 -19 85 -3 18 -40 185 -97
440 -35 157 -58 258 -74 330 -8 39 -23 108 -34 155 -10 47 -28 128 -40 180
-12 52 -33 145 -47 205 -13 61 -26 119 -29 130 -2 11 -11 58 -21 105 l-17 85
386 1160 386 1160 38 5 c37 5 982 3 1015 -2z m-4636 -1410 l-1 -923 -460 -918
-460 -918 -3 920 -2 921 460 920 c253 506 462 920 463 920 2 0 3 -415 3 -922z
m1439 797 c15 -60 29 -117 32 -125 3 -8 7 -22 8 -30 1 -8 66 -265 143 -570 78
-305 166 -650 195 -767 l54 -212 -697 -2090 c-383 -1150 -699 -2093 -702
-2096 -3 -3 -22 36 -42 87 -21 51 -42 102 -47 113 -4 11 -36 90 -69 175 -33
85 -65 164 -70 175 -5 11 -41 101 -80 200 -39 99 -75 189 -80 200 -5 11 -77
191 -160 400 -83 209 -155 389 -160 400 -5 11 -57 141 -115 288 l-106 268 25
42 c14 23 69 107 122 187 52 80 176 269 276 420 321 489 450 686 596 907 78
119 142 217 142 219 0 2 13 23 30 46 32 45 34 51 195 523 119 346 416 1210
448 1302 12 34 25 59 28 55 4 -4 19 -56 34 -117z m3688 -3612 c-3 -16 -107
-426 -229 -913 l-222 -885 -1 913 -1 912 230 0 230 0 -7 -27z"/>
</g>
</svg>
