<?xml version="1.0" encoding="utf-8"?>
<svg version="1.1" id="Layer_1" xmlns="http://www.w3.org/2000/svg" xmlns:xlink="http://www.w3.org/1999/xlink" x="0px" y="0px"
	 viewBox="0 0 48 48" style="enable-background:new 0 0 48 48;" xml:space="preserve">
<path d="M17.1,8c-5.4,0-9.8,4.4-9.8,9.8v13.8c0,5.4,4.4,9.8,9.8,9.8h13.8c5.4,0,9.8-4.4,9.8-9.8V17.9c0-5.4-4.4-9.8-9.8-9.8H17.1z
	 M17.1,11.1h13.8c3.8,0,6.8,3,6.8,6.8v13.8c0,3.8-3,6.8-6.8,6.8H17.1c-3.8,0-6.8-3-6.8-6.8V17.9C10.3,14.1,13.3,11.1,17.1,11.1z
	 M33,14.4c-0.8,0-1.4,0.6-1.4,1.4c0,0.8,0.6,1.4,1.4,1.4s1.4-0.6,1.4-1.4C34.4,15,33.8,14.4,33,14.4z M24,15.6c-5,0-9.1,4.1-9.1,9.1
	s4.1,9.1,9.1,9.1s9.1-4.1,9.1-9.1S29,15.6,24,15.6z M24,18.7c3.4,0,6.1,2.7,6.1,6.1s-2.7,6.1-6.1,6.1s-6.1-2.7-6.1-6.1
	S20.6,18.7,24,18.7z"/>
</svg>
