<?xml version="1.0" encoding="utf-8"?>
<svg version="1.1" id="Layer_1" xmlns="http://www.w3.org/2000/svg" xmlns:xlink="http://www.w3.org/1999/xlink" x="0px" y="0px"
	 viewBox="0 0 1079.9 1079.9" style="enable-background:new 0 0 1079.9 1079.9;" xml:space="preserve">
<style type="text/css">
	.st0{stroke:#000000;stroke-miterlimit:10;}
</style>
<g id="Layer_1_00000147908660423357324780000012581818475935740561_">
	<polygon class="st0" points="0,431.5 215.7,0 288.6,0 288,359.9 433.9,0 503.9,0 577,432 505,432 432,143.9 333,431.9 216,431.9 
		216,143.9 72,431.9 	"/>
	<polygon class="st0" points="503.9,0 576.1,0 651.1,216 720.1,0 791.9,0 648,431.9 576,431.9 612,323.9 	"/>
	<polygon class="st0" points="762.6,71.6 762.6,-0.3 1079.9,0 1079.9,72 864,188.9 1079.9,216 1079.9,288 936,431.9 791.9,432 
		1008,269.9 792,233.9 792,161.9 936,71.9 	"/>
</g>
<g id="Layer_3">
	<polygon class="st0" points="576.1,431.6 648.1,431.6 720.1,755.6 792,431.8 864.1,431.6 720.2,1079.6 648.1,1079.6 684.1,917.6 	
		"/>
	<polygon class="st0" points="0,431.6 72,431.8 72,719.8 216,431.8 333,431.8 144,719.8 287.9,1079.8 215.8,1079.8 72,791.8 
		72,1079.8 0,1079.8 	"/>
	<polygon class="st0" points="288,1079.8 504,431.8 576,431.8 576,1079.8 500.9,1079.6 504,503.8 356.9,1079.6 	"/>
	<path class="st0" d="M936,647.8v-144l143.9,0.3l0.1-72.3H864l-0.1,648H973l107-360l-0.1-72.6L936,647.8z M936,1007.8v-288h72
		L936,1007.8z"/>
</g>
</svg>
